<svg width="44" height="44" viewBox="0 0 44 44" fill="none" xmlns="http://www.w3.org/2000/svg">
<path d="M17.9819 25.2812C17.7811 25.2812 17.5885 25.3623 17.4466 25.5066C17.3046 25.6508 17.2249 25.8465 17.2249 26.0505C17.2249 26.2545 17.3046 26.4502 17.4466 26.5945C17.5885 26.7387 17.7811 26.8198 17.9819 26.8198H22.0193C22.22 26.8198 22.4126 26.7387 22.5546 26.5945C22.6965 26.4502 22.7763 26.2545 22.7763 26.0505C22.7763 25.8465 22.6965 25.6508 22.5546 25.5066C22.4126 25.3623 22.22 25.2812 22.0193 25.2812H17.9819Z" fill="url(#paint0_linear_5_9395)"/>
<path fill-rule="evenodd" clip-rule="evenodd" d="M24.3954 18.0009L25.5358 18.0432C25.9678 18.0659 26.3604 18.1 26.7167 18.1527C27.7826 18.3085 28.6648 18.645 29.2916 19.4377C29.9184 20.2315 30.0557 21.1832 29.982 22.2814C29.9113 23.3456 29.6287 24.6885 29.2774 26.3659L28.8222 28.5407C28.585 29.673 28.3922 30.5906 28.15 31.307C27.8977 32.0553 27.5646 32.6695 26.9973 33.1391C26.4301 33.6088 25.772 33.8121 25.0049 33.9081C24.268 34 23.3495 34 22.2191 34H17.782C16.6495 34 15.732 34 14.9951 33.9081C14.228 33.8121 13.5699 33.6088 13.0027 33.1391C12.4344 32.6695 12.1023 32.0553 11.85 31.308C11.6078 30.5906 11.416 29.673 11.1778 28.5417L10.7226 26.3669C10.3713 24.6885 10.0897 23.3456 10.018 22.2814C9.94435 21.1832 10.0816 20.2315 10.7084 19.4377C11.3342 18.645 12.2164 18.3085 13.2823 18.1527C13.6386 18.101 14.0322 18.0659 14.4632 18.0432L17.3368 18.0009H22.6642C23.0699 18.0009 24.028 17.9989 24.3954 18.0009ZM13.6739 19.6607L13.2671 20.4926C13.2218 20.5837 13.1946 20.683 13.187 20.7849C13.1794 20.8868 13.1915 20.9892 13.2228 21.0862C13.2541 21.1832 13.3039 21.273 13.3692 21.3503C13.4346 21.4275 13.5142 21.4908 13.6036 21.5364C13.693 21.5821 13.7904 21.6092 13.89 21.6162C13.9897 21.6231 14.0897 21.6099 14.1844 21.5771C14.279 21.5444 14.3664 21.4928 14.4414 21.4254C14.5165 21.3579 14.5777 21.276 14.6217 21.1842L15.416 19.5595C15.9914 19.5492 16.6474 19.5482 17.3984 19.5482H22.6026C23.3536 19.5482 24.0096 19.5482 24.585 19.5585L25.3793 21.1842C25.4699 21.3663 25.6272 21.5043 25.817 21.5683C26.0067 21.6322 26.2134 21.6169 26.3921 21.5257C26.5708 21.4344 26.707 21.2746 26.7711 21.0811C26.8351 20.8876 26.8217 20.6761 26.7339 20.4926L26.3271 19.6607L26.5027 19.6844C27.395 19.8155 27.8321 20.054 28.1147 20.4101C28.3922 20.761 28.5285 21.2389 28.474 22.1287H11.527C11.4725 21.2389 11.6088 20.761 11.8863 20.4101C12.169 20.054 12.606 19.8155 13.4983 19.6844L13.6739 19.6607ZM12.2164 26.1037C12.0429 25.2976 11.881 24.489 11.7309 23.678H28.2701C28.1194 24.4889 27.9572 25.2976 27.7836 26.1037L27.3516 28.1681C27.1013 29.3603 26.9277 30.185 26.7187 30.8022C26.5169 31.4009 26.311 31.7168 26.0455 31.9356C25.7811 32.1544 25.4348 32.2948 24.8222 32.3712C24.1873 32.4507 23.3616 32.4517 22.1696 32.4517H17.8304C16.6394 32.4517 15.8137 32.4507 15.1788 32.3712C14.5652 32.2948 14.22 32.1544 13.9555 31.9356C13.69 31.7168 13.4831 31.3999 13.2823 30.8022C13.0733 30.185 12.8987 29.3603 12.6494 28.1681L12.2164 26.1037Z" fill="url(#paint1_linear_5_9395)"/>
<path d="M26 21C26 21 24 13 20 13C16 13 14 21 14 21" stroke="url(#paint2_linear_5_9395)" stroke-width="1.5" stroke-linecap="round" stroke-linejoin="round"/>
<path fill-rule="evenodd" clip-rule="evenodd" d="M14.7277 21.1817C14.7277 21.1817 14.7276 21.1818 14.7277 21.1817L14.7284 21.1787L14.7321 21.1643C14.7355 21.151 14.7409 21.1305 14.7482 21.1032C14.7627 21.0486 14.785 20.967 14.8149 20.8621C14.8749 20.6523 14.9655 20.3503 15.0866 19.987C15.3295 19.2581 15.6917 18.2935 16.1709 17.3352C16.6532 16.3705 17.2356 15.45 17.9054 14.7802C18.5736 14.1119 19.2691 13.7498 20.0001 13.7498C20.731 13.7498 21.4265 14.1119 22.0947 14.7802C22.7645 15.45 23.3469 16.3705 23.8292 17.3352C24.3084 18.2935 24.6706 19.2581 24.9135 19.987C25.0346 20.3503 25.1252 20.6523 25.1852 20.8621C25.2151 20.967 25.2374 21.0486 25.2519 21.1032C25.2592 21.1305 25.2646 21.151 25.268 21.1643L25.2717 21.1787L25.2724 21.1816C25.373 21.5833 25.7802 21.8279 26.182 21.7274C26.5838 21.627 26.8281 21.2198 26.7277 20.8179L26.0001 20.9998C26.7277 20.8179 26.7277 20.8182 26.7277 20.8179L26.7274 20.8169L26.727 20.8151L26.7255 20.8094L26.7204 20.7895C26.716 20.7725 26.7096 20.748 26.7013 20.7167C26.6846 20.6542 26.66 20.5639 26.6274 20.45C26.5624 20.2224 26.4655 19.8994 26.3366 19.5127C26.0795 18.7416 25.6917 17.7062 25.1709 16.6644C24.6532 15.6291 23.9856 14.5497 23.1554 13.7195C22.3236 12.8878 21.2691 12.2498 20.0001 12.2498C18.731 12.2498 17.6765 12.8878 16.8447 13.7195C16.0145 14.5497 15.3469 15.6291 14.8292 16.6644C14.3084 17.7062 13.9206 18.7416 13.6635 19.5127C13.5346 19.8994 13.4377 20.2224 13.3727 20.45C13.3401 20.5639 13.3155 20.6542 13.2988 20.7167C13.2905 20.748 13.2841 20.7725 13.2797 20.7895L13.2746 20.8094L13.2732 20.8151L13.2727 20.8169C13.2727 20.8171 13.2724 20.8179 14.0001 20.9998L13.2724 20.8179C13.172 21.2198 13.4163 21.627 13.8182 21.7274C14.2199 21.8279 14.6271 21.5834 14.7277 21.1817Z" fill="url(#paint3_linear_5_9395)"/>
<defs>
<linearGradient id="paint0_linear_5_9395" x1="17.0761" y1="25.5239" x2="22.7725" y2="26.3779" gradientUnits="userSpaceOnUse">
<stop stop-color="#C09E6C"/>
<stop offset="0.426246" stop-color="#FFEBCC"/>
<stop offset="1" stop-color="#BF936B"/>
</linearGradient>
<linearGradient id="paint1_linear_5_9395" x1="9.46399" y1="20.5238" x2="30.3912" y2="21.6106" gradientUnits="userSpaceOnUse">
<stop stop-color="#C09E6C"/>
<stop offset="0.426246" stop-color="#FFEBCC"/>
<stop offset="1" stop-color="#BF936B"/>
</linearGradient>
<linearGradient id="paint2_linear_5_9395" x1="13.6784" y1="19.7381" x2="26.2199" y2="18.9565" gradientUnits="userSpaceOnUse">
<stop stop-color="#C09E6C"/>
<stop offset="0.426246" stop-color="#FFEBCC"/>
<stop offset="1" stop-color="#BF936B"/>
</linearGradient>
<linearGradient id="paint3_linear_5_9395" x1="12.8881" y1="20.2515" x2="27.0032" y2="19.4181" gradientUnits="userSpaceOnUse">
<stop stop-color="#C09E6C"/>
<stop offset="0.426246" stop-color="#FFEBCC"/>
<stop offset="1" stop-color="#BF936B"/>
</linearGradient>
</defs>
</svg>
