<svg width="40" height="40" viewBox="0 0 40 40" fill="none" xmlns="http://www.w3.org/2000/svg">
<path fill-rule="evenodd" clip-rule="evenodd" d="M11.8787 9.87868C12.4413 9.31607 13.2044 9 14 9H22.5C22.7652 9 23.0196 9.10536 23.2071 9.29289L28.7071 14.7929C28.8946 14.9804 29 15.2348 29 15.5V28C29 28.7957 28.6839 29.5587 28.1213 30.1213C27.5587 30.6839 26.7957 31 26 31H12C11.4477 31 11 30.5523 11 30C11 29.4477 11.4477 29 12 29H26C26.2652 29 26.5196 28.8946 26.7071 28.7071C26.8946 28.5196 27 28.2652 27 28V15.9142L22.0858 11H14C13.7348 11 13.4804 11.1054 13.2929 11.2929C13.1054 11.4804 13 11.7348 13 12V15C13 15.5523 12.5523 16 12 16C11.4477 16 11 15.5523 11 15V12C11 11.2044 11.3161 10.4413 11.8787 9.87868Z" fill="#645C4F"/>
<path fill-rule="evenodd" clip-rule="evenodd" d="M22 9C22.5523 9 23 9.44772 23 10V15H28C28.5523 15 29 15.4477 29 16C29 16.5523 28.5523 17 28 17H22C21.4477 17 21 16.5523 21 16V10C21 9.44772 21.4477 9 22 9Z" fill="#645C4F"/>
<path fill-rule="evenodd" clip-rule="evenodd" d="M10.1716 19.1716C10.9217 18.4214 11.9391 18 13 18C13.5253 18 14.0454 18.1035 14.5307 18.3045C15.016 18.5055 15.457 18.8001 15.8284 19.1716C16.1999 19.543 16.4945 19.984 16.6955 20.4693C16.8965 20.9546 17 21.4747 17 22C17 22.5253 16.8965 23.0454 16.6955 23.5307C16.4945 24.016 16.1999 24.457 15.8284 24.8284C15.457 25.1999 15.016 25.4945 14.5307 25.6955C14.0454 25.8965 13.5253 26 13 26C11.9391 26 10.9217 25.5786 10.1716 24.8284C9.42143 24.0783 9 23.0609 9 22C9 20.9391 9.42143 19.9217 10.1716 19.1716ZM13 20C12.4696 20 11.9609 20.2107 11.5858 20.5858C11.2107 20.9609 11 21.4696 11 22C11 22.5304 11.2107 23.0391 11.5858 23.4142C11.9609 23.7893 12.4696 24 13 24C13.2626 24 13.5227 23.9483 13.7654 23.8478C14.008 23.7473 14.2285 23.5999 14.4142 23.4142C14.5999 23.2285 14.7473 23.008 14.8478 22.7654C14.9483 22.5227 15 22.2626 15 22C15 21.7374 14.9483 21.4773 14.8478 21.2346C14.7473 20.992 14.5999 20.7715 14.4142 20.5858C14.2285 20.4001 14.008 20.2528 13.7654 20.1522C13.5227 20.0517 13.2626 20 13 20Z" fill="#645C4F"/>
<path fill-rule="evenodd" clip-rule="evenodd" d="M14.7929 23.7929C15.1834 23.4024 15.8166 23.4024 16.2071 23.7929L17.7071 25.2929C18.0976 25.6834 18.0976 26.3166 17.7071 26.7071C17.3166 27.0976 16.6834 27.0976 16.2929 26.7071L14.7929 25.2071C14.4024 24.8166 14.4024 24.1834 14.7929 23.7929Z" fill="#645C4F"/>
</svg>
