<svg width="58" height="60" viewBox="0 0 58 60" fill="none" xmlns="http://www.w3.org/2000/svg">
<path d="M5.29428 47.8292H52.7056C56.0402 43.1535 57.9999 37.4479 57.9999 31.2888C57.9999 15.432 45.0162 2.57764 28.9999 2.57764C12.9837 2.57764 0 15.432 0 31.2888C0 37.4479 1.95967 43.1535 5.29428 47.8292Z" fill="#545041"/>
<path d="M52.1554 46.5066C50.3519 42.9355 47.1866 41.9384 45.7444 41.6641C45.7444 41.6641 42.0557 40.9975 38.7966 39.6855C38.6964 40.0028 38.4779 40.2843 38.1573 40.4554C35.934 41.6422 32.935 42.6159 29.0788 42.6159C28.3278 42.616 27.5774 42.5771 26.8305 42.4993C26.849 42.5405 26.8665 42.5814 26.886 42.6229C26.0923 42.7222 23.5501 43.1047 21.0369 44.1722C17.0099 45.8822 14.8813 48.5613 14.8813 51.9199V56.3719C19.0596 58.6823 23.8741 59.9998 28.9999 59.9998C38.7951 59.9998 47.4552 55.1912 52.7056 47.829C52.5399 47.3496 52.3573 46.9062 52.1554 46.5066Z" fill="#72AAFC"/>
<path d="M19.3418 39.6294C16.0497 40.9785 12.2555 41.6642 12.2555 41.6642C10.8133 41.9385 7.64802 42.9356 5.84448 46.5067C5.64266 46.9063 5.46014 47.3497 5.29431 47.8291C7.83611 51.3933 11.177 54.3588 15.0589 56.4702V51.92C15.0589 43.8913 27.1548 42.7691 27.1548 42.7691C27.1133 42.6871 27.0733 42.6044 27.0347 42.5211C24.1436 42.2494 21.8127 41.4231 19.9985 40.4542C19.8378 40.3685 19.6966 40.2512 19.5836 40.1093C19.4707 39.9674 19.3883 39.8041 19.3418 39.6294Z" fill="#548BED"/>
<path d="M38.9733 38.6857L36.7004 35.0714C36.3806 34.5628 35.7658 34.3213 35.1789 34.4675C33.405 34.9094 31.3229 35.243 29.0788 35.243C28.8449 35.243 28.6133 35.2385 28.3831 35.2315V37.1542C28.04 37.3225 26.9952 37.92 26.5357 39.1446C26.1571 40.154 26.275 41.3232 26.886 42.6231C26.7639 42.6384 26.6002 42.6604 26.4021 42.6906C27.2902 42.7977 28.184 42.8511 29.0787 42.8506C33.0626 42.8506 36.1607 41.8448 38.4576 40.6186C39.1607 40.2434 39.3954 39.357 38.9733 38.6857Z" fill="#548BED"/>
<path d="M22.9773 34.4661C22.3903 34.3197 21.7754 34.5613 21.4555 35.07L19.1829 38.684C18.7608 39.3553 18.9954 40.2415 19.6983 40.6169C21.6111 41.6384 24.0816 42.5049 27.154 42.7671C25.0874 38.6943 28.5607 37.2661 28.5607 37.2661V35.2361C26.5142 35.1897 24.6146 34.8744 22.9773 34.4661Z" fill="#3E7FDD"/>
<path d="M39.4948 33.1191C38.6959 30.3491 38.3648 28.1866 38.293 26.5156C37.6863 28.6832 36.8933 30.6025 35.9275 32.2388C35.374 33.1762 34.6822 34.0264 33.8751 34.7615C32.675 41.6933 34.9191 46.915 36.6851 49.7686C37.0573 50.3698 38.049 50.1177 38.0394 49.4233C37.9599 43.6767 41.6459 40.578 39.4948 33.1191Z" fill="#45304C"/>
<path d="M29.0775 4.61484C30.9389 4.61484 32.518 4.96957 33.8473 5.51613C33.8848 5.2759 33.9045 5.02969 33.9045 4.77902C33.9044 2.13961 31.7433 0 29.0775 0C26.4116 0 24.2504 2.13961 24.2504 4.77902C24.2504 5.02969 24.2701 5.27578 24.3077 5.51613C25.6369 4.96957 27.216 4.61484 29.0775 4.61484Z" fill="#56415E"/>
<path d="M29.0775 3.60234C27.1803 1.72406 29.0775 0 29.0775 0C26.4116 0 24.2504 2.13961 24.2504 4.77902C24.2504 5.02969 24.2701 5.27578 24.3077 5.51613C25.6369 4.96957 27.216 4.61496 29.0775 4.61496V3.60234Z" fill="#45304C"/>
<path d="M23.4643 6.21078C24.9537 5.45 26.8057 4.92207 29.0775 4.92207C31.3493 4.92207 33.2014 5.45 34.6908 6.2109C34.9532 6.34539 35.2093 6.49155 35.4583 6.64895C33.9633 4.79316 31.6615 3.60254 29.0775 3.60254C26.4936 3.60254 24.1917 4.79305 22.6968 6.64883C22.9458 6.49141 23.2019 6.34524 23.4643 6.21078Z" fill="#D3DCFB"/>
<path d="M19.6442 19.551C19.7793 19.1135 19.964 18.7348 20.2139 18.456C20.4388 18.2051 20.5799 17.8947 20.59 17.5626C20.6484 15.6225 21.4016 9.33705 28.6346 12.0822C28.9188 12.19 29.236 12.19 29.5202 12.0822C36.7532 9.33705 37.5064 15.6225 37.5648 17.5626C37.5749 17.8947 37.716 18.2051 37.9409 18.456C38.1908 18.7348 38.3755 19.1135 38.5106 19.551V19.5509C38.877 19.309 39.446 19.1422 39.9602 19.1542L39.9603 19.1527V14.444C39.9603 10.8757 37.9512 7.56881 34.6907 5.90346C33.2013 5.14268 31.3492 4.61475 29.0774 4.61475C26.8056 4.61475 24.9535 5.14268 23.4641 5.90346C20.2036 7.56881 18.1945 10.8757 18.1945 14.444V19.1527L18.1946 19.1542C18.7088 19.1424 19.2777 19.3091 19.6442 19.551Z" fill="#56415E"/>
<path d="M29.0774 4.61475C26.8056 4.61475 24.9535 5.14268 23.4641 5.90346C20.2036 7.56881 18.1945 10.8757 18.1945 14.444V19.1527L18.1946 19.1542C18.7089 19.1422 19.2777 19.3091 19.6442 19.5509C19.7793 19.1134 19.964 18.7347 20.2139 18.4559C20.4388 18.205 20.5799 17.8946 20.59 17.5624C20.6474 15.6597 21.3738 9.57764 28.2261 11.935C28.1975 11.8979 28.17 11.8607 28.139 11.8241C24.9239 8.03545 29.0774 4.61475 29.0774 4.61475Z" fill="#45304C"/>
<path d="M19.5547 25.1452C19.5547 25.1452 18.9644 21.4467 19.6443 19.244C19.0274 18.8369 17.8355 18.6382 17.2996 19.1569C16.2021 20.2191 17.0063 21.8232 17.3911 22.8364C17.5071 23.1393 17.5839 23.4555 17.6199 23.7774C17.6948 24.4624 18.0699 25.4649 19.6252 25.4414C19.6017 25.3427 19.5776 25.2455 19.5547 25.1452Z" fill="#EEA784"/>
<path d="M40.8553 19.1569C40.3193 18.6382 39.1274 18.8369 38.5106 19.244C39.1905 21.4467 38.6002 25.1452 38.6002 25.1452C38.5773 25.2455 38.5532 25.3427 38.5297 25.4414C40.0851 25.465 40.4602 24.4625 40.5352 23.7774C40.5696 23.4622 40.6458 23.1475 40.764 22.8364C41.1486 21.8232 41.9528 20.2191 40.8553 19.1569Z" fill="#FFBB99"/>
<path d="M37.9989 18.098C37.7748 17.848 37.6515 17.5558 37.6424 17.2532C37.6077 16.1015 37.3139 13.2827 35.3407 11.9818C33.941 11.0591 31.9734 11.0687 29.4925 12.0106C29.2253 12.1122 28.9295 12.1122 28.6623 12.0106C28.3727 11.9005 28.0794 11.8002 27.7829 11.7098C25.7745 13.0432 25.4748 15.9179 25.4394 17.0936C25.43 17.4032 25.3041 17.7018 25.0747 17.9575C23.8111 19.3673 24.0879 23.486 24.3826 25.1816C25.0355 28.0346 25.9813 30.5224 27.1931 32.5759C28.1954 34.2741 29.6197 35.6626 31.3533 36.6511C33.2788 35.6752 34.8513 34.2159 35.9273 32.3925C37.1122 30.385 38.037 27.9523 38.6768 25.1571C38.9537 23.4141 39.2487 19.4925 37.9989 18.098Z" fill="#F1BCA2"/>
<path d="M27.2909 32.3927C26.1059 30.3847 25.1811 27.9521 24.5427 25.1622C24.2544 23.5041 23.9839 19.4768 25.2194 18.0982C25.4437 17.8481 25.5669 17.5561 25.576 17.2534C25.6107 16.1016 25.9045 13.2826 27.8777 11.9818C27.9626 11.9259 28.0497 11.8734 28.1389 11.8244C25.9037 11.0737 24.1136 11.1253 22.8141 11.9818C20.8408 13.2827 20.5471 16.1016 20.5125 17.2534C20.5033 17.5561 20.3801 17.8481 20.1558 18.0982C18.9202 19.4766 19.1908 23.5041 19.4791 25.1622C20.1176 27.9521 21.0424 30.3847 22.2273 32.3927C23.4304 34.4312 25.2524 36.0166 27.4962 36.9777C27.9956 37.1906 28.5336 37.3004 29.0773 37.3004C29.621 37.3004 30.1591 37.1906 30.6585 36.9777C30.9821 36.8385 31.2993 36.6849 31.609 36.5176C29.8002 35.5441 28.3191 34.1346 27.2909 32.3927Z" fill="#EFA176"/>
<path d="M46.77 8.59961C44.8732 10.1314 42.9638 12.5896 44.0891 15.8504C46.0976 21.6702 40.8458 29.6187 46.7466 35.4607C50.2191 38.8987 54.3699 38.7346 57.1987 38.0175C57.7223 35.8593 58 33.6063 58 31.2889C57.9999 22.0616 53.6023 13.8522 46.77 8.59961ZM11.2299 8.59961C13.1267 10.1314 15.036 12.5896 13.9107 15.8504C11.9023 21.6702 17.1541 29.6187 11.2533 35.4607C7.7808 38.8987 3.62993 38.7346 0.80122 38.0175C0.277569 35.8593 0 33.6063 0 31.2889C0 22.0616 4.39754 13.8522 11.2299 8.59961Z" fill="#615C4D"/>
<path d="M48.6627 52.3904C48.079 50.0778 46.6315 48.7365 45.458 48.002C44.7181 47.5388 43.7533 48.0601 43.7533 48.9268V56.0108C45.5138 54.9782 47.1593 53.7647 48.6627 52.3904Z" fill="#548BED"/>
<path d="M36.2069 37.3001C36.2069 40.4364 36.7295 43.495 38.9827 43.8741C39.8673 40.8507 40.8645 37.869 39.4946 33.1192C39.4616 33.0047 39.4306 32.8928 39.3991 32.7803C37.9348 33.5575 36.2069 34.9683 36.2069 37.3001Z" fill="#56415E"/>
</svg>
