<svg width="58" height="60" viewBox="0 0 58 60" fill="none" xmlns="http://www.w3.org/2000/svg">
<path d="M3.72321 45.369H54.2769C56.6464 41.2086 58 36.4054 58 31.2888C58 15.432 45.0163 2.57764 29.0001 2.57764C12.9839 2.57764 0.000244148 15.432 0.000244148 31.2888C0.000125782 36.4056 1.35364 41.2086 3.72321 45.369Z" fill="#545041"/>
<path d="M26.4895 40.4085C26.4895 40.4085 28.2471 41.1719 29.0001 42.2669C29.753 41.1719 31.5106 40.4085 31.5106 40.4085L38.5877 36.8448C37.9889 36.6616 37.3836 36.4999 36.7729 36.3602C35.5713 35.1705 35.2666 32.915 35.2118 31.3369C34.5847 32.0601 33.9266 32.665 33.2977 33.1484C32.0724 34.0905 30.5604 34.6021 29.0031 34.6021C27.4459 34.6021 25.9339 34.0905 24.7087 33.1484C24.0798 32.6649 23.4217 32.06 22.7945 31.3369C22.7397 32.915 22.435 35.1705 21.2334 36.3602C20.6214 36.5002 20.0147 36.6623 19.4147 36.846L26.4895 40.4085Z" fill="#FFAA7B"/>
<path d="M28.709 34.5955C27.2563 34.5354 25.8565 34.0306 24.7086 33.148C24.0797 32.6645 23.4215 32.0596 22.7944 31.3364C22.7467 32.709 22.5092 34.5935 21.6576 35.844C22.8688 38.2644 24.4382 40.2895 26.0255 39.2303C27.9829 37.924 28.5635 35.9824 28.709 34.5955Z" fill="#FC9460"/>
<path d="M26.7383 40.0368L23.5983 38.4556C22.2622 38.8579 20.4377 39.9082 20.3733 42.6499C19.471 42.8046 14.9277 43.794 14.9277 47.9965V56.3967C19.095 58.6916 23.8928 59.9999 28.9999 59.9999C29.1012 59.9999 29.2018 59.9971 29.3029 59.9962V42.5759C29.3029 41.1501 26.7383 40.0368 26.7383 40.0368Z" fill="#7E6DD1"/>
<path d="M15.1054 56.4932V47.9965C15.1054 43.4563 20.5492 42.8006 20.5492 42.8006C20.5492 39.9182 22.5042 38.9162 23.8213 38.5678L20.0369 36.6621C11.9339 39.2781 8.0638 40.3242 6.0459 41.7503C8.14666 43.1698 11.4505 46.1184 11.4505 50.6298V54.146C12.6077 55.0179 13.8294 55.8025 15.1054 56.4932Z" fill="#7255CE"/>
<path d="M37.9632 36.6621L31.2615 40.0368C31.2615 40.0368 28.6969 41.15 28.6969 42.5759V59.9961C28.798 59.9972 28.8986 59.9999 28.9999 59.9999C30.3602 59.9999 31.6982 59.9057 33.0086 59.7262L33.0078 59.7257L41.2676 57.3096V57.3098C43.1369 56.4443 44.9076 55.3836 46.5494 54.1459V50.6298C46.5494 46.1184 49.8534 43.1699 51.954 41.7503C49.9362 40.3242 46.0663 39.2781 37.9632 36.6621Z" fill="#9589E8"/>
<path d="M35.891 33.6475C35.8594 33.6302 35.8241 33.6206 35.788 33.6193C35.7519 33.618 35.716 33.6252 35.6832 33.6402C35.6504 33.6553 35.6217 33.6777 35.5993 33.7058C35.5769 33.7339 35.5615 33.7668 35.5544 33.8018C35.3519 34.7839 34.4731 37.8775 31.2099 39.7136C30.8885 39.8944 30.8116 40.3189 31.0546 40.5946L34.352 44.3337C35.0367 45.1144 36.2972 44.9739 36.7913 44.0631C37.6268 42.5233 38.7907 40.1795 39.6521 37.6598C39.8064 37.2086 39.6967 36.7097 39.3716 36.3586C38.3675 35.2742 37.192 34.3585 35.891 33.6475Z" fill="#B5B0F7"/>
<path d="M26.792 39.7139C26.0069 39.2721 25.3609 38.7571 24.828 38.2168C24.034 38.2835 20.5806 38.7879 20.3829 42.4688C20.6491 43.0053 20.925 43.5369 21.2105 44.0635C21.7047 44.9743 22.9652 45.1148 23.6498 44.3341L26.9472 40.595C27.1903 40.3191 27.1132 39.8946 26.792 39.7139Z" fill="#9589E8"/>
<path d="M22.4474 33.8018C22.4403 33.7668 22.4249 33.7339 22.4025 33.7058C22.3802 33.6777 22.3514 33.6553 22.3186 33.6402C22.2859 33.6252 22.25 33.618 22.2138 33.6193C22.1777 33.6206 22.1424 33.6302 22.1108 33.6475C20.8099 34.3585 19.6344 35.2741 18.6303 36.3586C18.3052 36.7097 18.1955 37.2086 18.3497 37.6598C19.001 39.5647 19.8248 41.3682 20.5491 42.8006C20.5492 38.4552 24.9942 38.3819 24.9942 38.3819L24.9943 38.3815C23.1811 36.6393 22.6062 34.5718 22.4474 33.8018Z" fill="#7E6DD1"/>
<path d="M46.3126 54.3236C49.5685 51.9207 52.2812 48.8706 54.2766 45.3689C54.0534 44.7115 53.8117 44.1082 53.5493 43.5784C53.1712 42.8151 52.6465 42.2165 51.8372 41.6694C49.7449 43.0565 46.3126 46.0322 46.3126 50.6297V54.3236Z" fill="#B5B0F7"/>
<path d="M6.16255 41.6694C5.35328 42.2166 4.82845 42.8151 4.4505 43.5784C4.1882 44.1082 3.9465 44.7115 3.72314 45.3689C5.71858 48.8706 8.43126 51.9207 11.6872 54.3236V50.6297C11.6873 46.0322 8.2549 43.0565 6.16255 41.6694Z" fill="#7E6DD1"/>
<path d="M39.8473 49.292H34.3432C33.562 49.292 32.9229 49.9248 32.9229 50.6982V59.2529C32.9229 59.4189 32.9537 59.5777 33.0078 59.7258C35.8679 59.335 38.6523 58.5205 41.2676 57.3097V50.6982C41.2676 49.9248 40.6285 49.292 39.8473 49.292Z" fill="#B5B0F7"/>
<path d="M48.8247 10.3364C46.0716 12.3513 42.6459 15.7481 44.0982 20.004C46.3471 26.5951 36.1676 30.7517 47.5308 35.5288C52.0741 37.439 54.714 39.4319 56.2478 41.1363C57.3808 38.0647 58 34.7485 58 31.2886C57.9999 23.0233 54.4708 15.5749 48.8247 10.3364ZM9.17525 10.3364C11.9284 12.3513 15.3541 15.7481 13.9018 20.004C11.6529 26.5951 21.8324 30.7517 10.4692 35.5288C5.92587 37.439 3.28584 39.4319 1.75217 41.1363C0.619172 38.0647 0 34.7485 0 31.2886C0.000118366 23.0233 3.5292 15.5749 9.17525 10.3364Z" fill="#615C4D"/>
<path d="M18.2136 18.4542H39.9066C39.9451 16.9067 40.2058 12.8108 41.8393 9.89307C41.9517 9.69271 42.0197 9.47089 42.0386 9.24244C42.0575 9.014 42.0269 8.78419 41.9489 8.56838C41.3561 6.93221 39.5856 3.10721 35.7243 2.08698C35.5186 2.0326 35.4643 1.76917 35.6316 1.63897L36.2103 1.18885C36.4726 0.984712 36.3719 0.570103 36.0442 0.507642C33.1953 -0.0363424 23.7337 -1.33806 20.7947 4.64518C20.6193 5.00225 20.2887 5.25936 19.9004 5.35885C19.0452 5.57799 17.5071 6.23846 16.5045 8.21764C16.4071 8.40916 16.3491 8.61793 16.3338 8.83183C16.3185 9.04573 16.3463 9.26051 16.4155 9.4637C16.9027 10.8853 18.0898 14.7026 18.2136 18.4542Z" fill="#56415E"/>
<path d="M27.9202 8.99656C24.4554 3.76895 30.516 0.00195312 30.516 0.00195312C26.8405 0.0490625 22.5946 0.980937 20.7947 4.64504C20.6193 5.00211 20.2887 5.25922 19.9004 5.35871C19.0452 5.57785 17.5071 6.23832 16.5045 8.2175C16.4071 8.40902 16.3491 8.61779 16.3338 8.83169C16.3185 9.04559 16.3463 9.26037 16.4155 9.46356C16.9027 10.8852 18.0898 14.7024 18.2136 18.4541H23.2631C26.459 15.8911 29.9791 12.103 27.9202 8.99656Z" fill="#45304C"/>
<path d="M40.7487 17.8283C40.263 17.3877 39.1773 17.611 38.759 17.8808C38.8506 18.4458 38.8558 19.0237 38.7766 19.5944L38.283 23.1537C38.283 23.4405 38.2739 23.722 38.2571 23.9986C39.4607 24.358 40.177 23.2882 40.2777 22.554C40.3209 22.2379 40.3921 21.9262 40.4903 21.6225C40.8105 20.6327 41.9655 18.9323 40.7487 17.8283Z" fill="#FFBB99"/>
<path d="M17.2515 17.8283C17.7372 17.3877 18.823 17.611 19.2413 17.8808C19.15 18.448 19.1441 19.0255 19.2236 19.5944L19.7172 23.1537C19.7172 23.4405 19.7263 23.722 19.7431 23.9986C18.5395 24.358 17.8232 23.2882 17.7225 22.554C17.6793 22.2379 17.6082 21.9262 17.5099 21.6225C17.1898 20.6327 16.0347 18.9323 17.2515 17.8283Z" fill="#EEA784"/>
<path d="M38.5801 16.7811C38.4689 16.4941 38.3289 16.2034 38.1524 15.9293C37.8535 15.465 37.722 14.9159 37.7622 14.3684C37.8773 12.7936 37.8155 9.71359 35.7275 8.78336C33.9535 7.99305 31.7773 8.45066 30.3896 8.90746C29.5215 9.19275 28.5853 9.20352 27.7108 8.93828C26.1296 10.1397 26.0925 12.8447 26.1994 14.2851C26.2412 14.8364 26.1021 15.3864 25.8028 15.8532C25.6297 16.1222 25.4911 16.407 25.3803 16.6888C25.0208 17.6031 24.9159 18.5948 25.0506 19.5658L25.5508 23.1729C25.5508 28.3587 28.3469 31.8835 30.7252 33.7121C31.0763 33.982 31.4518 34.2141 31.844 34.4123C32.3608 34.1858 32.8478 33.8979 33.2943 33.5549C35.6416 31.7504 38.4011 28.2715 38.4011 23.1535L38.8947 19.5943C39.0264 18.6454 38.9266 17.6764 38.5801 16.7811Z" fill="#F1BCA2"/>
<path d="M30.7423 33.555C28.395 31.7505 25.6355 28.2716 25.6355 23.1536L25.1418 19.5936C25.0089 18.6353 25.1124 17.6566 25.4671 16.7542C25.5765 16.476 25.7132 16.195 25.8842 15.9295C26.1796 15.4688 26.3169 14.926 26.2757 14.3819C26.1668 12.9152 26.2091 10.1199 27.9202 8.99652C27.8159 8.97063 27.7126 8.94093 27.6105 8.90746C26.2226 8.45066 24.0466 7.99305 22.2726 8.78336C20.1785 9.71617 20.1224 12.8112 20.239 14.3819C20.2803 14.926 20.143 15.4688 19.8476 15.9295C19.6766 16.195 19.5398 16.476 19.4304 16.7542C19.0757 17.6566 18.9722 18.6353 19.1052 19.5936L19.5989 23.1536C19.5989 28.2716 22.3585 31.7504 24.7057 33.555C25.9309 34.497 27.4429 35.0086 29.0001 35.0086C30.0445 35.0085 31.0756 34.7776 32.0184 34.3328C31.566 34.1197 31.1382 33.859 30.7423 33.555Z" fill="#EFA176"/>
</svg>
